<svg xmlns="http://www.w3.org/2000/svg" width="256" height="256" viewBox="0 0 256 256" role="img" aria-label="Remember app icon">
  <defs>
    <linearGradient id="bg" x1="40" y1="24" x2="216" y2="232" gradientUnits="userSpaceOnUse">
      <stop offset="0" stop-color="#12345c"/>
      <stop offset="0.52" stop-color="#0b1d35"/>
      <stop offset="1" stop-color="#061120"/>
    </linearGradient>
    <linearGradient id="accent" x1="72" y1="58" x2="184" y2="202" gradientUnits="userSpaceOnUse">
      <stop offset="0" stop-color="#58b7ff"/>
      <stop offset="1" stop-color="#2f8cff"/>
    </linearGradient>
  </defs>
  <rect x="18" y="18" width="220" height="220" rx="48" fill="url(#bg)"/>
  <rect x="28" y="28" width="200" height="200" rx="38" fill="none" stroke="#56a8ff" stroke-opacity="0.72" stroke-width="8"/>
  <path d="M78 183V73h58c26 0 45 17 45 40 0 17-10 31-25 37l31 33h-35l-26-29h-18v29H78Zm30-54h26c10 0 17-6 17-15s-7-15-17-15h-26v30Z" fill="#e7f3ff"/>
  <circle cx="72" cy="72" r="15" fill="#ff6b78"/>
  <path d="M176 72l34 20-34 20V72Z" fill="url(#accent)"/>
  <path d="M71 204h118" stroke="#68d96b" stroke-width="12" stroke-linecap="round"/>
</svg>
